<svg>
  <symbol id="email" viewBox="0 0 512 512" xmlns="http://www.w3.org/2000/svg">
    <path d="M467,61H45C20.218,61,0,81.196,0,106v300c0,24.72,20.128,45,45,45h422c24.72,0,45-20.128,45-45V106
			C512,81.28,491.872,61,467,61z M460.786,91L256.954,294.833L51.359,91H460.786z M30,399.788V112.069l144.479,143.24L30,399.788z
			 M51.213,421l144.57-144.57l50.657,50.222c5.864,5.814,15.327,5.795,21.167-0.046L317,277.213L460.787,421H51.213z M482,399.787
			L338.213,256L482,112.212V399.787z"/>
    </symbol>
    <symbol id="location" viewBox="0 0 512 512" xmlns="http://www.w3.org/2000/svg">
      <path d="M256,0C156.748,0,76,80.748,76,180c0,33.534,9.289,66.26,26.869,94.652l142.885,230.257
			c2.737,4.411,7.559,7.091,12.745,7.091c0.04,0,0.079,0,0.119,0c5.231-0.041,10.063-2.804,12.75-7.292L410.611,272.22
			C427.221,244.428,436,212.539,436,180C436,80.748,355.252,0,256,0z M384.866,256.818L258.272,468.186l-129.905-209.34
			C113.734,235.214,105.8,207.95,105.8,180c0-82.71,67.49-150.2,150.2-150.2S406.1,97.29,406.1,180
			C406.1,207.121,398.689,233.688,384.866,256.818z"/>
      <path d="M256,90c-49.626,0-90,40.374-90,90c0,49.309,39.717,90,90,90c50.903,0,90-41.233,90-90C346,130.374,305.626,90,256,90z
			 M256,240.2c-33.257,0-60.2-27.033-60.2-60.2c0-33.084,27.116-60.2,60.2-60.2s60.1,27.116,60.1,60.2
			C316.1,212.683,289.784,240.2,256,240.2z"/>
    </symbol>
    <symbol id="github" viewBox="0 0 512 512" xmlns="http://www.w3.org/2000/svg">
      <path d="M255.968,5.329C114.624,5.329,0,120.401,0,262.353c0,113.536,73.344,209.856,175.104,243.872
			c12.8,2.368,17.472-5.568,17.472-12.384c0-6.112-0.224-22.272-0.352-43.712c-71.2,15.52-86.24-34.464-86.24-34.464
			c-11.616-29.696-28.416-37.6-28.416-37.6c-23.264-15.936,1.728-15.616,1.728-15.616c25.696,1.824,39.2,26.496,39.2,26.496
			c22.848,39.264,59.936,27.936,74.528,21.344c2.304-16.608,8.928-27.936,16.256-34.368
			c-56.832-6.496-116.608-28.544-116.608-127.008c0-28.064,9.984-51.008,26.368-68.992c-2.656-6.496-11.424-32.64,2.496-68
			c0,0,21.504-6.912,70.4,26.336c20.416-5.696,42.304-8.544,64.096-8.64c21.728,0.128,43.648,2.944,64.096,8.672
			c48.864-33.248,70.336-26.336,70.336-26.336c13.952,35.392,5.184,61.504,2.56,68c16.416,17.984,26.304,40.928,26.304,68.992
			c0,98.72-59.84,120.448-116.864,126.816c9.184,7.936,17.376,23.616,17.376,47.584c0,34.368-0.32,62.08-0.32,70.496
			c0,6.88,4.608,14.88,17.6,12.352C438.72,472.145,512,375.857,512,262.353C512,120.401,397.376,5.329,255.968,5.329z"/>
    </symbol>
    <symbol id="linkedin" viewBox="0 0 512 512" xmlns="http://www.w3.org/2000/svg">
      <path d="m160.007812 423h-70v-226h70zm6.984376-298.003906c0-22.628906-18.359376-40.996094-40.976563-40.996094-22.703125 0-41.015625 18.367188-41.015625 40.996094 0 22.636718 18.3125 41.003906 41.015625 41.003906 22.617187 0 40.976563-18.367188 40.976563-41.003906zm255.007812 173.667968c0-60.667968-12.816406-105.664062-83.6875-105.664062-34.054688 0-56.914062 17.03125-66.246094 34.742188h-.066406v-30.742188h-68v226h68v-112.210938c0-29.386718 7.480469-57.855468 43.90625-57.855468 35.929688 0 37.09375 33.605468 37.09375 59.722656v110.34375h69zm90 153.335938v-392c0-33.085938-26.914062-60-60-60h-392c-33.085938 0-60 26.914062-60 60v392c0 33.085938 26.914062 60 60 60h392c33.085938 0 60-26.914062 60-60zm-60-412c11.027344 0 20 8.972656 20 20v392c0 11.027344-8.972656 20-20 20h-392c-11.027344 0-20-8.972656-20-20v-392c0-11.027344 8.972656-20 20-20zm0 0"/>
    </symbol>
    <symbol id="skype" viewBox="0 0 512 512" xmlns="http://www.w3.org/2000/svg">
      <path d="M514.533,268.444c0-33.317-6.469-65.185-19.4-95.595s-30.41-56.622-52.43-78.648
			c-22.021-22.026-48.238-39.499-78.648-52.43s-62.277-19.4-95.601-19.4c-17.014,0-34.492,1.873-52.43,5.6
			C191.782,9.335,164.518,0.009,134.23,0.009c-37.051,0-68.685,13.109-94.903,39.321C13.109,65.542,0,97.17,0,134.227
			c0,30.3,9.314,57.564,27.962,81.788c-3.733,17.956-5.594,35.435-5.594,52.43c0,33.329,6.469,65.196,19.401,95.606
			c12.931,30.41,30.41,56.622,52.43,78.648c22.02,22.025,48.238,39.498,78.648,52.43c30.41,12.932,62.277,19.4,95.6,19.4
			c17.008,0,34.486-1.873,52.43-5.6c24.236,18.635,51.5,27.962,81.795,27.962c37.051,0,68.684-13.109,94.902-39.321
			c26.219-26.218,39.326-57.852,39.326-94.896c0-30.3-9.32-57.553-27.961-81.8C512.666,302.948,514.533,285.47,514.533,268.444z
			 M398.484,372.79c-7.691,13.629-18.004,24.535-30.936,32.687c-12.932,8.152-27.209,14.395-42.822,18.691
			c-15.617,4.314-31.928,6.475-48.936,6.475c-39.382,0-73.292-7.632-101.72-22.901c-28.433-15.263-42.644-33.617-42.644-55.056
			c0-10.483,2.968-19.223,8.917-26.218c5.942-6.989,14.731-10.483,26.389-10.483c6.757,0,13.048,1.873,18.874,5.6
			c5.82,3.728,11.188,8.207,16.078,13.452c4.896,5.244,10.189,10.489,15.906,15.729c5.71,5.244,13.28,9.736,22.724,13.464
			c9.437,3.727,20.098,5.587,31.983,5.587c15.141,0,27.381-2.962,36.701-8.904c9.314-5.955,13.984-13.464,13.984-22.559
			c0-9.314-3.732-16.304-11.188-20.973c-5.129-3.25-18.176-7.442-39.148-12.577l-51.035-12.589
			c-13.984-3.249-25.986-7.044-36.004-11.358c-10.024-4.303-19.345-9.951-27.962-16.946c-8.623-6.989-15.147-15.784-19.572-26.396
			c-4.431-10.594-6.64-23.005-6.64-37.234c0-17.001,3.898-31.977,11.708-44.908c7.803-12.932,18.176-23.079,31.108-30.41
			c12.932-7.344,26.854-12.822,41.769-16.438c14.908-3.604,30.288-5.41,46.139-5.41c22.369,0,43.574,2.674,63.617,8.029
			c20.037,5.367,36.586,13.231,49.633,23.593c13.049,10.379,19.572,21.971,19.572,34.792c0,10.484-3.322,19.456-9.963,26.91
			s-15.441,11.181-26.391,11.181c-6.059,0-11.652-1.395-16.773-4.192c-5.129-2.797-9.787-6.169-13.984-10.147
			c-4.193-3.947-8.623-7.864-13.281-11.702c-4.664-3.849-10.955-7.167-18.873-9.969c-7.926-2.797-16.898-4.192-26.917-4.192
			c-33.556,0-50.331,8.984-50.331,26.91c0,3.972,0.875,7.466,2.62,10.483c1.75,3.048,3.672,5.49,5.765,7.344
			c2.099,1.873,5.594,3.727,10.483,5.587c4.896,1.873,8.966,3.225,12.234,4.027c3.262,0.82,8.391,2.032,15.379,3.672l36.352,8.384
			c11.414,2.564,21.611,5.245,30.588,8.042c8.967,2.797,18.582,6.757,28.838,11.879c10.252,5.135,18.758,10.839,25.521,17.136
			c6.756,6.279,12.404,14.266,16.951,23.936c4.547,9.682,6.818,20.343,6.818,31.989C410.021,343.843,406.172,359.161,398.484,372.79
			z"/>
    </symbol>
    <symbol id="discord" viewBox="0 0 512 512" xmlns="http://www.w3.org/2000/svg">
      <path d="M437.019,74.982C388.667,26.628,324.379,0,256,0S123.333,26.628,74.981,74.982C26.628,123.333,0,187.621,0,256
			s26.628,132.667,74.981,181.019C123.333,485.372,187.621,512,256,512s132.667-26.628,181.019-74.982
			C485.372,388.667,512,324.379,512,256S485.372,123.333,437.019,74.982z M256,495.832C123.756,495.832,16.168,388.244,16.168,256
			S123.756,16.168,256,16.168S495.832,123.756,495.832,256S388.244,495.832,256,495.832z"/>
      <path d="M448.621,291.123c-0.078-4.435-3.704-7.994-8.14-7.994c-4.554,0.001-8.215,3.745-8.128,8.3
			c0.482,25.568-0.469,49.778-2.77,70.251c-36.435,28.254-87.47,44.992-122.901,49.448l-17.987-48.164
			c24.924-3.903,62.879-14.828,93.67-45.155c2.644-2.605,3.175-6.674,1.288-9.87c-1.886-3.196-5.707-4.693-9.265-3.639
			c-3.636,1.081-8.478,2.973-13.605,4.976c-5.788,2.261-12.349,4.824-16.042,5.701c-29.431,6.999-59.262,10.546-88.676,10.546
			c-0.019,0-0.067,0-0.067,0h-0.064c-29.412,0-59.246-3.548-88.677-10.546c-3.692-0.877-10.253-3.44-16.041-5.701
			c-4.932-1.927-9.601-3.751-13.186-4.849c-3.335-1.022-7.068-0.044-9.167,2.741c-2.477,3.287-2.09,7.822,0.772,10.642
			c30.9,30.434,68.793,41.387,93.665,45.294l-17.975,48.023c-35.429-4.456-86.47-21.195-122.905-49.448
			c-7.617-67.754-0.462-176.432,24.57-239.864c22.942-10.42,56.646-13.383,88.3-14.644l-50.48,23.408
			c-3.833,1.776-5.651,6.206-4.173,10.165c1.48,3.958,5.757,6.109,9.816,4.936c35.034-10.12,70.545-15.253,105.547-15.253
			s70.514,5.133,105.547,15.253c4.055,1.168,8.336-0.979,9.816-4.936c1.48-3.958-0.338-8.387-4.173-10.164l-50.48-23.408
			c31.655,1.261,65.358,4.224,88.3,14.644c13.691,34.694,22.033,82.921,25.536,130.586c0.312,4.243,3.855,7.518,8.109,7.518h0.03
			c4.734,0,8.467-4.024,8.121-8.745c-3.7-50.491-12.816-101.545-28.002-138.382c-0.744-1.803-2.114-3.278-3.86-4.15
			c-32.14-16.067-82.437-17.359-122.854-18.399c-4.946-0.127-9.726-0.249-14.276-0.396c-3.836-0.112-7.237,2.474-8.125,6.213
			c-0.888,3.738,0.979,7.585,4.465,9.201l24.607,11.411c-14.289-1.607-28.564-2.416-42.763-2.416
			c-14.199,0-28.475,0.808-42.764,2.416l24.607-11.411c3.486-1.616,5.353-5.463,4.465-9.201c-0.887-3.739-4.279-6.321-8.125-6.213
			c-4.55,0.147-9.329,0.268-14.276,0.396c-40.416,1.039-90.715,2.331-122.854,18.399c-1.745,0.872-3.116,2.347-3.86,4.15
			C65.45,180.095,57.964,294.856,66.754,366.924c0.254,2.089,1.313,3.995,2.951,5.315c41.525,33.475,100.37,52.072,140.266,55.653
			c0.244,0.023,0.486,0.032,0.727,0.032c3.344,0,6.378-2.072,7.567-5.25l23.747-63.444c1.165-3.11,0.329-6.702-2.326-8.994
			c-1.3-1.122-2.961-1.732-4.669-1.907c-12.462-1.273-31.326-4.622-51.2-13.33c24.025,4.446,48.197,6.694,72.118,6.694h0.064
			c0.001,0,0.002,0,0.002,0h0.065c23.812,0,47.877-2.227,71.793-6.634c-19.722,8.547-38.452,11.858-50.864,13.127
			c-1.708,0.175-3.37,0.783-4.672,1.901c-2.661,2.287-3.501,5.882-2.338,8.995l23.747,63.587c1.188,3.182,4.223,5.256,7.569,5.256
			c0.241,0,0.484-0.011,0.727-0.032c39.897-3.581,98.742-22.178,140.266-55.653c1.638-1.32,2.696-3.226,2.951-5.315
			C447.942,344.81,449.105,318.673,448.621,291.123z"/>
      <path d="M180.547,183.242c-28.231,0-51.2,22.969-51.2,51.2c0,28.231,22.969,51.2,51.2,51.2s51.2-22.969,51.2-51.2
			C231.747,206.211,208.778,183.242,180.547,183.242z M180.547,269.474c-19.316,0-35.032-15.715-35.032-35.032
			s15.716-35.032,35.032-35.032s35.032,15.715,35.032,35.032S199.863,269.474,180.547,269.474z"/>
      <path d="M331.453,183.242c-28.231,0-51.2,22.969-51.2,51.2c0,28.231,22.969,51.2,51.2,51.2s51.2-22.969,51.2-51.2
			C382.653,206.211,359.684,183.242,331.453,183.242z M331.453,269.474c-19.316,0-35.032-15.715-35.032-35.032
			s15.716-35.032,35.032-35.032c19.316,0,35.032,15.715,35.032,35.032S350.768,269.474,331.453,269.474z"/>
    </symbol>
</svg>

